<svg xmlns="http://www.w3.org/2000/svg" viewBox="0 0 800 450">
<defs><linearGradient id="bg" x1="0" y1="0" x2="1" y2="1"><stop offset="0" stop-color="#162448"/><stop offset="1" stop-color="#0a1020"/></linearGradient></defs>
<rect width="800" height="450" fill="url(#bg)"/>
<rect x="64" y="20" width="672" height="410" rx="18" fill="#0f1730" stroke="#9ab0e0" stroke-opacity=".25"/>
<text x="92" y="58" font-family="system-ui,sans-serif" font-size="30" font-weight="700" fill="#edf3ff">👾 Space Invaders Clone</text>
<text x="92" y="82" font-family="system-ui,sans-serif" font-size="14" fill="#9ab0e0">Move, shoot, clear waves, survive enemy fire.</text>
<rect x="92" y="102" width="616" height="296" rx="12" fill="#050a14" stroke="#9ab0e0" stroke-opacity=".2"/>
<g fill="#f43f5e"><rect x="140" y="140" width="28" height="20"/><rect x="186" y="140" width="28" height="20"/><rect x="232" y="140" width="28" height="20"/><rect x="278" y="140" width="28" height="20"/><rect x="324" y="140" width="28" height="20"/><rect x="370" y="140" width="28" height="20"/></g>
<g fill="#f43f5e"><rect x="150" y="182" width="28" height="20"/><rect x="196" y="182" width="28" height="20"/><rect x="242" y="182" width="28" height="20"/><rect x="288" y="182" width="28" height="20"/><rect x="334" y="182" width="28" height="20"/></g>
<rect x="386" y="258" width="4" height="22" fill="#fef08a"/>
<rect x="510" y="214" width="4" height="20" fill="#22d3ee"/>
<rect x="376" y="340" width="48" height="18" fill="#4ade80"/><rect x="390" y="332" width="20" height="8" fill="#4ade80"/>
<text x="94" y="420" font-family="system-ui,sans-serif" font-size="13" fill="#9ab0e0">Score: 420   Lives: 2   Wave: 3   State: Running</text>
</svg>
