<svg xmlns="http://www.w3.org/2000/svg" viewBox="0 0 800 450">
  <defs>
    <linearGradient id="bg" x1="0" y1="0" x2="1" y2="1">
      <stop offset="0" stop-color="#17233f"/>
      <stop offset="1" stop-color="#0b1020"/>
    </linearGradient>
  </defs>
  <rect width="800" height="450" fill="url(#bg)"/>
  <rect x="90" y="22" width="620" height="406" rx="20" fill="#101933" stroke="#9eb0d9" stroke-opacity="0.25"/>
  <text x="120" y="62" font-family="system-ui,sans-serif" font-size="30" font-weight="700" fill="#eef3ff">🟡 Pacman Classic</text>
  <text x="120" y="86" font-family="system-ui,sans-serif" font-size="14" fill="#9eb0d9">Eat all dots, dodge ghosts, survive with 3 lives.</text>

  <rect x="120" y="104" width="560" height="300" rx="14" fill="#070b16" stroke="#9eb0d9" stroke-opacity="0.2"/>

  <rect x="145" y="128" width="510" height="18" fill="#3b82f6"/>
  <rect x="145" y="354" width="510" height="18" fill="#3b82f6"/>
  <rect x="145" y="128" width="18" height="244" fill="#3b82f6"/>
  <rect x="637" y="128" width="18" height="244" fill="#3b82f6"/>
  <rect x="250" y="184" width="300" height="14" fill="#3b82f6"/>
  <rect x="250" y="302" width="300" height="14" fill="#3b82f6"/>

  <circle cx="220" cy="220" r="4" fill="#fde68a"/>
  <circle cx="260" cy="220" r="4" fill="#fde68a"/>
  <circle cx="300" cy="220" r="4" fill="#fde68a"/>
  <circle cx="340" cy="220" r="4" fill="#fde68a"/>
  <circle cx="380" cy="220" r="4" fill="#fde68a"/>

  <path d="M 450 250 A 18 18 0 1 1 450 286 L 450 268 Z" fill="#facc15"/>

  <path d="M 520 245 a18 18 0 0 1 36 0 v18 h-36z" fill="#ef4444"/>
  <circle cx="530" cy="251" r="3" fill="white"/><circle cx="546" cy="251" r="3" fill="white"/>
  <path d="M 575 290 a18 18 0 0 1 36 0 v18 h-36z" fill="#22d3ee"/>
  <circle cx="585" cy="296" r="3" fill="white"/><circle cx="601" cy="296" r="3" fill="white"/>

  <text x="124" y="420" font-family="system-ui,sans-serif" font-size="13" fill="#9eb0d9">Score: 820   Lives: 2   Dots: 34   State: Running</text>
</svg>
