<svg xmlns="http://www.w3.org/2000/svg" viewBox="0 0 800 450" role="img" aria-label="Habit Heatmap app thumbnail">
  <defs>
    <linearGradient id="bg" x1="0" y1="0" x2="1" y2="1">
      <stop offset="0%" stop-color="#f4f8f6"/>
      <stop offset="100%" stop-color="#e8f6ed"/>
    </linearGradient>
  </defs>
  <rect width="800" height="450" fill="url(#bg)"/>
  <rect x="58" y="42" width="684" height="366" rx="22" fill="#ffffff" stroke="#d5e5df"/>

  <text x="92" y="84" font-family="system-ui, sans-serif" font-size="30" font-weight="700" fill="#0f2b21">🟩 Habit Heatmap</text>
  <text x="92" y="108" font-family="system-ui, sans-serif" font-size="14" fill="#4f7468">Click a square to cycle intensity from 0 to 4 and build momentum.</text>

  <g transform="translate(92,132)">
    <rect width="180" height="62" rx="12" fill="#f4fbf7" stroke="#d5e5df"/>
    <text x="14" y="24" font-family="system-ui, sans-serif" font-size="12" fill="#4f7468">TOTAL CHECK-INS</text>
    <text x="14" y="48" font-family="system-ui, sans-serif" font-size="28" font-weight="700" fill="#0f2b21">47</text>
  </g>
  <g transform="translate(286,132)">
    <rect width="180" height="62" rx="12" fill="#f4fbf7" stroke="#d5e5df"/>
    <text x="14" y="24" font-family="system-ui, sans-serif" font-size="12" fill="#4f7468">STRONGEST HABIT</text>
    <text x="14" y="48" font-family="system-ui, sans-serif" font-size="22" font-weight="700" fill="#0f2b21">Deep Work</text>
  </g>
  <g transform="translate(480,132)">
    <rect width="180" height="62" rx="12" fill="#f4fbf7" stroke="#d5e5df"/>
    <text x="14" y="24" font-family="system-ui, sans-serif" font-size="12" fill="#4f7468">CURRENT STREAK</text>
    <text x="14" y="48" font-family="system-ui, sans-serif" font-size="28" font-weight="700" fill="#0f2b21">5 days</text>
  </g>

  <g font-family="system-ui, sans-serif" font-size="13" fill="#4f7468" font-weight="600">
    <text x="210" y="232">Mon</text><text x="260" y="232">Tue</text><text x="310" y="232">Wed</text>
    <text x="360" y="232">Thu</text><text x="410" y="232">Fri</text><text x="460" y="232">Sat</text><text x="510" y="232">Sun</text>
  </g>

  <g font-family="system-ui, sans-serif" font-size="14" fill="#0f2b21" font-weight="600">
    <text x="92" y="262">Exercise</text>
    <text x="92" y="296">Read</text>
    <text x="92" y="330">Deep Work</text>
    <text x="92" y="364">Hydrate</text>
  </g>

  <g transform="translate(205,245)">
    <g>
      <rect x="0" y="0" width="26" height="26" rx="6" fill="#8fdaa5" stroke="#d5e5df"/>
      <rect x="50" y="0" width="26" height="26" rx="6" fill="#4fc67a" stroke="#d5e5df"/>
      <rect x="100" y="0" width="26" height="26" rx="6" fill="#c9ebd1" stroke="#d5e5df"/>
      <rect x="150" y="0" width="26" height="26" rx="6" fill="#4fc67a" stroke="#d5e5df"/>
      <rect x="200" y="0" width="26" height="26" rx="6" fill="#15803d" stroke="#d5e5df"/>
      <rect x="250" y="0" width="26" height="26" rx="6" fill="#8fdaa5" stroke="#d5e5df"/>
      <rect x="300" y="0" width="26" height="26" rx="6" fill="#ecf7ef" stroke="#d5e5df"/>
    </g>
    <g transform="translate(0,34)">
      <rect x="0" y="0" width="26" height="26" rx="6" fill="#ecf7ef" stroke="#d5e5df"/>
      <rect x="50" y="0" width="26" height="26" rx="6" fill="#8fdaa5" stroke="#d5e5df"/>
      <rect x="100" y="0" width="26" height="26" rx="6" fill="#8fdaa5" stroke="#d5e5df"/>
      <rect x="150" y="0" width="26" height="26" rx="6" fill="#4fc67a" stroke="#d5e5df"/>
      <rect x="200" y="0" width="26" height="26" rx="6" fill="#8fdaa5" stroke="#d5e5df"/>
      <rect x="250" y="0" width="26" height="26" rx="6" fill="#4fc67a" stroke="#d5e5df"/>
      <rect x="300" y="0" width="26" height="26" rx="6" fill="#15803d" stroke="#d5e5df"/>
    </g>
    <g transform="translate(0,68)">
      <rect x="0" y="0" width="26" height="26" rx="6" fill="#4fc67a" stroke="#d5e5df"/>
      <rect x="50" y="0" width="26" height="26" rx="6" fill="#15803d" stroke="#d5e5df"/>
      <rect x="100" y="0" width="26" height="26" rx="6" fill="#4fc67a" stroke="#d5e5df"/>
      <rect x="150" y="0" width="26" height="26" rx="6" fill="#8fdaa5" stroke="#d5e5df"/>
      <rect x="200" y="0" width="26" height="26" rx="6" fill="#4fc67a" stroke="#d5e5df"/>
      <rect x="250" y="0" width="26" height="26" rx="6" fill="#4fc67a" stroke="#d5e5df"/>
      <rect x="300" y="0" width="26" height="26" rx="6" fill="#15803d" stroke="#d5e5df"/>
    </g>
    <g transform="translate(0,102)">
      <rect x="0" y="0" width="26" height="26" rx="6" fill="#c9ebd1" stroke="#d5e5df"/>
      <rect x="50" y="0" width="26" height="26" rx="6" fill="#8fdaa5" stroke="#d5e5df"/>
      <rect x="100" y="0" width="26" height="26" rx="6" fill="#8fdaa5" stroke="#d5e5df"/>
      <rect x="150" y="0" width="26" height="26" rx="6" fill="#4fc67a" stroke="#d5e5df"/>
      <rect x="200" y="0" width="26" height="26" rx="6" fill="#4fc67a" stroke="#d5e5df"/>
      <rect x="250" y="0" width="26" height="26" rx="6" fill="#15803d" stroke="#d5e5df"/>
      <rect x="300" y="0" width="26" height="26" rx="6" fill="#8fdaa5" stroke="#d5e5df"/>
    </g>
  </g>
</svg>
