<svg xmlns="http://www.w3.org/2000/svg" viewBox="0 0 800 450" role="img" aria-label="Foley Scene Mixer thumbnail">
  <defs>
    <linearGradient id="bg" x1="0" y1="0" x2="1" y2="1">
      <stop offset="0%" stop-color="#163a52" />
      <stop offset="100%" stop-color="#061019" />
    </linearGradient>
    <linearGradient id="panel" x1="0" y1="0" x2="0" y2="1">
      <stop offset="0%" stop-color="#173447" />
      <stop offset="100%" stop-color="#0f2230" />
    </linearGradient>
    <filter id="glow" x="-30%" y="-30%" width="160%" height="160%">
      <feGaussianBlur stdDeviation="4" result="b" />
      <feMerge><feMergeNode in="b" /><feMergeNode in="SourceGraphic" /></feMerge>
    </filter>
  </defs>
  <rect x="0" y="0" width="800" height="450" fill="url(#bg)" />
  <rect x="28" y="26" width="744" height="398" rx="20" fill="url(#panel)" stroke="#2fd7ff" stroke-opacity="0.35" />
  <text x="54" y="70" fill="#e5f7ff" font-size="34" font-family="Inter,system-ui,sans-serif" font-weight="700" filter="url(#glow)">Foley Scene Mixer</text>
  <rect x="54" y="86" width="218" height="30" rx="14" fill="#2fd7ff" fill-opacity="0.2" stroke="#2fd7ff" />
  <text x="68" y="106" fill="#e5f7ff" font-size="16" font-family="Inter,system-ui,sans-serif">Scene: Space Bay</text>

  <g transform="translate(54,136)">
    <rect width="430" height="208" rx="14" fill="#0c1c28" stroke="#2fd7ff" stroke-opacity="0.25" />
    <g fill="#173447" stroke="#2fd7ff" stroke-opacity="0.45">
      <rect x="16" y="16" width="124" height="56" rx="10" /><rect x="154" y="16" width="124" height="56" rx="10" />
      <rect x="292" y="16" width="124" height="56" rx="10" /><rect x="16" y="84" width="124" height="56" rx="10" />
      <rect x="154" y="84" width="124" height="56" rx="10" fill="#2fd7ff" fill-opacity="0.3" /><rect x="292" y="84" width="124" height="56" rx="10" />
      <rect x="16" y="152" width="124" height="40" rx="10" /><rect x="154" y="152" width="124" height="40" rx="10" />
      <rect x="292" y="152" width="124" height="40" rx="10" />
    </g>
    <text x="178" y="117" fill="#e5f7ff" font-size="15" font-family="Inter,system-ui,sans-serif">DRONE FLYBY</text>
  </g>

  <g transform="translate(506,136)">
    <rect width="240" height="208" rx="14" fill="#0c1c28" stroke="#2fd7ff" stroke-opacity="0.25" />
    <text x="18" y="28" fill="#e5f7ff" font-size="16" font-family="Inter,system-ui,sans-serif">Mix Controls</text>
    <g stroke="#7cf2a0" stroke-width="6" stroke-linecap="round" opacity="0.9">
      <line x1="22" y1="62" x2="196" y2="62" /><line x1="22" y1="96" x2="174" y2="96" />
      <line x1="22" y1="130" x2="210" y2="130" /><line x1="22" y1="164" x2="150" y2="164" />
    </g>
    <circle cx="196" cy="62" r="10" fill="#ffd166" /><circle cx="174" cy="96" r="10" fill="#ffd166" />
    <circle cx="210" cy="130" r="10" fill="#ffd166" /><circle cx="150" cy="164" r="10" fill="#ffd166" />
  </g>

  <g transform="translate(54,364)">
    <rect width="692" height="36" rx="10" fill="#0c1c28" stroke="#2fd7ff" stroke-opacity="0.3" />
    <rect x="0" y="0" width="692" height="36" rx="10" fill="url(#panel)" opacity="0.35" />
    <g fill="#7cf2a0" filter="url(#glow)">
      <rect x="68" y="17" width="10" height="12" rx="5" /><rect x="180" y="11" width="10" height="18" rx="5" />
      <rect x="258" y="15" width="10" height="14" rx="5" /><rect x="372" y="8" width="10" height="21" rx="5" />
      <rect x="514" y="13" width="10" height="16" rx="5" /><rect x="620" y="9" width="10" height="20" rx="5" />
    </g>
    <rect x="318" y="2" width="3" height="32" fill="#ffd166" filter="url(#glow)" />
  </g>
</svg>
